inDegrees=no
num_controls=7
num_derivatives=13
num_iterations=140
num_multipliers=7
num_parameters=0
num_slacks=7
num_states=26
objective=0.476893
objective_accelerations=0.044398
objective_balance=0.003571
objective_effort=0.040431
objective_height=0.382835
objective_ligament=0.005658
solver_duration=1979.323002
status=Solve_Succeeded
success=true
DataType=double
version=3
OpenSimVersion=4.5
endheader
time	/jointset/ground_pelvis/pelvis_tilt/value	/jointset/ground_pelvis/pelvis_tx/value	/jointset/ground_pelvis/pelvis_ty/value	/jointset/hip_l/hip_flexion_l/value	/jointset/hip_l/hip_adduction_l/value	/jointset/hip_l/hip_rotation_l/value	/jointset/back/lumbar_extension/value	/jointset/patellofemoral_l/patellar_flexion_l/value	/jointset/knee_l/knee_flexion_l/value	/jointset/knee_l/knee_adduction_l/value	/jointset/knee_l/knee_rotation_l/value	/jointset/ankle_l/ankle_angle_l/value	/jointset/subtalar_l/subtalar_angle_l/value	/jointset/ground_pelvis/pelvis_tilt/speed	/jointset/ground_pelvis/pelvis_tx/speed	/jointset/ground_pelvis/pelvis_ty/speed	/jointset/hip_l/hip_flexion_l/speed	/jointset/hip_l/hip_adduction_l/speed	/jointset/hip_l/hip_rotation_l/speed	/jointset/back/lumbar_extension/speed	/jointset/patellofemoral_l/patellar_flexion_l/speed	/jointset/knee_l/knee_flexion_l/speed	/jointset/knee_l/knee_adduction_l/speed	/jointset/knee_l/knee_rotation_l/speed	/jointset/ankle_l/ankle_angle_l/speed	/jointset/subtalar_l/subtalar_angle_l/speed	/forceset/tau_hip_flexion_l	/forceset/tau_hip_adduction_l	/forceset/tau_hip_rotation_l	/forceset/tau_knee_flexion_l	/forceset/tau_ankle_angle_l	/forceset/tau_subtalar_angle_l	/forceset/tau_lumbar_extension	lambda_cid13_p0	lambda_cid13_p1	lambda_cid13_p2	lambda_cid13_p3	lambda_cid13_p4	lambda_cid13_p5	lambda_cid14_p0	/jointset/ground_pelvis/pelvis_tilt/accel	/jointset/ground_pelvis/pelvis_tx/accel	/jointset/ground_pelvis/pelvis_ty/accel	/jointset/hip_l/hip_flexion_l/accel	/jointset/hip_l/hip_adduction_l/accel	/jointset/hip_l/hip_rotation_l/accel	/jointset/back/lumbar_extension/accel	/jointset/patellofemoral_l/patellar_flexion_l/accel	/jointset/knee_l/knee_flexion_l/accel	/jointset/knee_l/knee_adduction_l/accel	/jointset/knee_l/knee_rotation_l/accel	/jointset/ankle_l/ankle_angle_l/accel	/jointset/subtalar_l/subtalar_angle_l/accel	gamma_cid13_p0	gamma_cid13_p1	gamma_cid13_p2	gamma_cid13_p3	gamma_cid13_p4	gamma_cid13_p5	gamma_cid14_p0
0	-0.03681442311992623	0.0566738013912528	0.9203417333825367	0.3085816938045678	-0.2956376803715021	-0.3015480072658165	-0.3879492264334186	0.2499269421184905	0.2499269421184919	-0.174532911962312	-0.1744745537770228	-0.0008036623358878681	0.0004397382513094018	0	0	0	0	0	0	0	0	0	0	0	0	0	0.07541414264747372	-0.05330277071753921	-0.02023860197892099	-0.2463698533749042	0.1914423732756806	-0.0112354245096419	-0.0005633146534735217	18.25852696426586	-0.8350295424400332	2.55456799405941	9.844032968678887	-620.3308772478359	-77.1841517449289	-23.19493450232677	-0.9952549399899004	-2.072832272601458	-0.9371394182381505	9.406493701249836	-0.8634266349405674	3.366253583144359	-7.477442403993908	9.532413063787352	9.532413063786265	1.27269009458452	-0.09249232832530915	1.645937690410673	-0.3668434127568256	2.77174794326459e-09	1.434109824778915e-07	8.822647413412829e-08	-2.378676102522843e-08	1.651403950761278e-07	-9.206917617254185e-09	-1.981335294090042e-09
0.01	-0.03686009708888036	0.05657236026963313	0.9202960693407409	0.3090387268518607	-0.2956806707191515	-0.3013792338819062	-0.3883191545569856	0.2503935060397267	0.2503935060397287	-0.1744724793981533	-0.174475537154009	-0.000722656815791754	0.0004211306581402807	-0.009058259143032344	-0.02008683977412885	-0.009080835912265295	0.09078678790785863	-0.008521268254647418	0.03358139088456992	-0.07323408240315697	0.09282486799453213	0.09282486799453805	0.01207182940513328	-0.0001709774682824253	0.01625365791293929	-0.003622284236285889	0.06715298476431467	-0.05747069439310359	-0.01926514212617712	-0.239914487141576	0.183626744046487	-0.002234502445845275	0.007401774875683168	15.9336241095989	-4.31706232312348	3.086861287736994	8.982624571176256	-624.228080448449	-83.69476045499947	-23.20035155125571	-0.8496418857409928	-1.946406904609022	-0.8857267826070875	8.821790681984744	-0.8349936460204763	3.328082913764622	-7.133659811998009	9.084336625609156	9.084336625610408	1.17226039147146	0.02446455668280677	1.622967371135773	-0.3450690854475512	-3.18516069942208e-08	1.513331604184806e-07	1.503015268948446e-07	1.763410528206366e-08	8.417402334834074e-09	-5.204981001535479e-08	-7.02237314986592e-09
0.02	-0.03699405974611988	0.05627609133531421	0.9201611627188452	0.3103850316475189	-0.2958065770944061	-0.3008798463746199	-0.3893988772352882	0.2517736812325741	0.2517736812325736	-0.174291762334344	-0.1744774573031231	-0.0004775372106861757	0.0003692705913316857	-0.01765773765731364	-0.0389655625398529	-0.01784851601998608	0.1778543496729529	-0.01658320552104052	0.066122824675193	-0.1419589109471758	0.1827222543219846	0.1827222543219891	0.02405689993001573	-0.0001873544260637378	0.03282281700188762	-0.006650494727894795	0.05889182688115285	-0.06163861806866824	-0.01829168227344517	-0.2334591209082483	0.1758111148172923	0.006766419617950861	0.01536686440483841	13.6820799573328	-7.810375681493214	3.619166525146713	8.006095889915192	-627.0294986287751	-90.1140695178316	-23.21618968487591	-0.903498814239727	-1.831208870920465	-0.8745082573292483	8.662648472696965	-0.7715604372897062	3.158262164354993	-6.575591632166296	8.946916730371401	8.946916730368853	1.255338318534349	-0.06157222622508034	1.709037925612517	-0.248028663821419	-6.647496193170619e-08	1.592553383590696e-07	2.123765796555609e-07	5.905497158935575e-08	-1.483055904064596e-07	-9.48927024134554e-08	-1.20634110056418e-08
0.03	-0.03721223639522927	0.0557959609360456	0.9199396656767592	0.3125860671627643	-0.2960110657373804	-0.3000606552327548	-0.3911467699667874	0.2540393312980059	0.2540393312980045	-0.1739920608622081	-0.1744796273297696	-6.63861356038627e-05	0.0002893961981359719	-0.02592689108876548	-0.0569699603034992	-0.02644179011451357	0.2619565942970273	-0.02427083829458451	0.09754854624303175	-0.207242570077049	0.2700121926129017	0.270012192612904	0.03580242887887477	-0.0002583525285789149	0.04933163678345176	-0.009304876618245849	0.05313447059460596	-0.05662776284101907	-0.01755209095747529	-0.2284766149695479	0.1708291370751906	0.005691216144831726	0.0203431220324473	12.00704103726072	-7.114206982494089	3.581372258338965	8.455937819888078	-628.0754471474889	-87.91086462804603	-23.24168541955986	-0.7810245038967575	-1.771459699091102	-0.8504019374488857	8.224578776907045	-0.7608634719588849	3.109673532536405	-6.448193262108264	8.56069988878343	8.560699888784615	1.122063432266499	0.01841282755063532	1.610439802118686	-0.2712661689615222	-8.635821808200241e-08	1.430117182821052e-07	2.769352879625703e-07	7.440575858840878e-08	-2.240640773983467e-07	-1.366128861245267e-07	-2.095796142732329e-08
0.04	-0.03751158475791203	0.05513850566513976	0.919632502903341	0.3156162383881793	-0.2962911304630046	-0.2989322175993036	-0.3935361873313274	0.2571660142484117	0.2571660142484106	-0.173577323450743	-0.1744828520514796	0.0005075802968321781	0.0001835533425728337	-0.03389208037217539	-0.07443053686729935	-0.03498166228641739	0.3436814917068778	-0.03169842205101404	0.1279721229923942	-0.2702638375553443	0.354928831317081	0.3549288313170905	0.04706408779592652	-0.0003982934384784752	0.06538588847262905	-0.01184418720137969	0.04737711430805375	-0.05161690761336945	-0.01681249964149401	-0.2234941090308524	0.1658471593330878	0.004616012671712474	0.02531937966005253	10.39968836970593	-6.426999304403425	3.541705068646776	8.791764606941484	-628.1205727731574	-85.62023836010314	-23.27601895170786	-0.8427059846313774	-1.722444630951206	-0.8638278728045155	8.187179029852173	-0.7195506338668146	2.957833200659731	-6.123113301850751	8.47225681302384	8.472256813023156	1.158564312172885	-0.07536078770194926	1.618124307135182	-0.2250144023779669	-1.059375546696762e-07	1.262698343284902e-07	3.415452056622869e-07	8.921901817904451e-08	-2.981531931376685e-07	-1.783099212028758e-07	-2.993196571634305e-08
0.05	-0.03788937088004628	0.05430987420209799	0.9192401155877568	0.3194512324733003	-0.2966439165424863	-0.2975047352360232	-0.3965428652241049	0.2611298445548563	0.2611298445548563	-0.1730521614717439	-0.1744877710755337	0.001240640649338386	5.343415154640511e-05	-0.04161524891167391	-0.0911336425210751	-0.04349050866178641	0.4228203181824085	-0.03879479867665723	0.1573663501579095	-0.3305645008911074	0.4374049983635507	0.4374049983635261	0.05789314733421261	-0.0005622108982797687	0.08122796259958086	-0.01411319546664319	0.04158530029246347	-0.05040474884841103	-0.01626210834347898	-0.2210502649692248	0.1642766238430327	0.00617512299963381	0.03087833227958112	9.962689710030725	-7.027036395395402	3.636717236484607	7.588822036290193	-629.0283365621458	-86.02988407611517	-23.31813589527057	-0.7296436166943769	-1.619908586000407	-0.8436794239451841	7.702670897629071	-0.6951433540979713	2.906470442517175	-5.907456833130018	8.070467968112474	8.070467968107796	1.033857003521679	0.01664368619664679	1.567514197252334	-0.2179345246157408	-1.229279946694339e-07	8.693377311753924e-08	3.847838164646301e-07	1.036000750909842e-07	-3.726996079584263e-07	-2.140590868904714e-07	-3.822513591811229e-08
0.06	-0.03834289295319166	0.05331907867183663	0.9187627865276105	0.3240627021114218	-0.2970657588236614	-0.2957880600074837	-0.4001373325469783	0.2659054707952959	0.2659054707952964	-0.1724209528515891	-0.1744936190919228	0.002132174789469565	-9.739321933569602e-05	-0.04903927057458841	-0.1068633503112167	-0.05197001119884197	0.4989766023069626	-0.04550966238969647	0.1858106960442146	-0.3878217235745122	0.5172880181161774	0.5172880181161222	0.06827341602710715	-0.0005840919054458612	0.09708064599761912	-0.01598582317251441	0.03579348627686901	-0.04919259008345183	-0.01571171704546102	-0.2186064209075999	0.1627060883529768	0.00773423332755566	0.03643728489910659	9.586208861600849	-7.636210926738801	3.731519803022863	6.27451590247727	-629.0432455282204	-86.3617000943193	-23.36676384917096	-0.7828766093146116	-1.527765058224342	-0.8579591051418199	7.590670559656878	-0.6432480513460274	2.767856944817684	-5.5144251713791	7.95362735425523	7.953627354255254	1.068806143094569	-0.04695349717489967	1.620246161352508	-0.1457382904994987	-1.398094284970689e-07	4.6646378127332e-08	4.271225827660312e-07	1.179629339953999e-07	-4.472652774773498e-07	-2.495578159721404e-07	-4.648963942147097e-08
0.07000000000000001	-0.03886944308167439	0.05217555694664735	0.9182006004942594	0.3294218888627254	-0.2975527700050482	-0.2937922669565221	-0.4042894977817216	0.2714675363234648	0.2714675363234681	-0.1716879841683282	-0.1744996699566148	0.003182045436547206	-0.0002649736182652959	-0.05621773809654081	-0.1217068685521916	-0.06047673271657544	0.5724097551767512	-0.05182520703089292	0.2131795907858904	-0.4421717980652498	0.5947072959191888	0.5947072959191573	0.07824155461031931	-0.0006150098437294446	0.1128584214757757	-0.01747341518130473	0.02952173867160955	-0.04673440508351685	-0.0150236970384696	-0.2154474176434704	0.159588954024569	0.008639169539422044	0.04206384119990835	8.672576927950965	-7.885601604775039	3.789951878832501	5.741638529076337	-629.0244607270807	-85.89928361994986	-23.42046048613829	-0.6773820067356254	-1.442502514101174	-0.848549618749989	7.151975976554619	-0.6156611868448205	2.696092780593394	-5.329369791638022	7.573418651642922	7.573418651646479	0.9490509131318886	0.02057345973163518	1.551278777669408	-0.1417989645408125	-1.503030170442045e-07	-5.573799146113249e-09	4.58288339269747e-07	1.239812920207451e-07	-4.945037887366534e-07	-2.790037959963719e-07	-5.474585234119671e-08
0.08	-0.03946618792199574	0.05088762857763499	0.9175530430569989	0.3355018748079106	-0.2981009273361147	-0.2915278475497937	-0.4089719780021154	0.2777912627613278	0.2777912627613334	-0.1708576874597959	-0.1745056831203117	0.004388640945730871	-0.0004457357989771983	-0.0630782129425007	-0.135744679075832	-0.06904429198074528	0.6431364410831314	-0.05773889232562407	0.2395359671976008	-0.4938847207046692	0.6696202000549535	0.6696202000549458	0.08773902108142553	-0.0005765517065437427	0.1284256184188195	-0.0186221795289754	0.02324999106634983	-0.04427622008358136	-0.01433567703147957	-0.212288414379341	0.1564718196961612	0.009544105751288948	0.04769039750070965	7.812794655173855	-8.142458983138749	3.847333429578545	5.101824534183494	-628.2180285181106	-85.36720682113334	-23.47770506836859	-0.7192780741161461	-1.366623514757408	-0.8701266544290909	7.049377166975225	-0.5628761820529709	2.56535327882459	-4.986994801115464	7.452352620805877	7.452352620805918	0.9746717206733774	-0.03307828208103186	1.578130454329982	-0.07797275827555863	-1.603844865409852e-07	-5.856383334105765e-08	4.887332564316767e-07	1.294612951506664e-07	-5.399792575275944e-07	-3.080592760814139e-07	-6.300153038455902e-08
0.09	-0.04013027138230232	0.04946336551531644	0.9168193762867547	0.3422762207416141	-0.2987061451251793	-0.2890053572274418	-0.4141580637204156	0.2848520120227628	0.2848520120227604	-0.169934573224098	-0.1745114767415482	0.005749975542788052	-0.0006361787908138492	-0.06968647575530137	-0.1489708439089312	-0.07770564969089677	0.7112846465944057	-0.0632329074953154	0.264788999329698	-0.5428928994141371	0.7421130139877291	0.742113013987716	0.09680492025840931	-0.0005732787009379949	0.1438061649379884	-0.01940520024173265	0.01667584956928971	-0.04202560298966732	-0.01363739665918069	-0.209473320666101	0.1534522175711587	0.01069809855453595	0.05356463573842428	6.964974534193559	-8.504294588523148	3.915418389781998	4.505077888526213	-627.8195966768108	-85.04433418247157	-23.53685254936705	-0.6238002499416917	-1.280023564838554	-0.8667372035356614	6.630315208997326	-0.5319500843806966	2.479234004333164	-4.791800874728014	7.085262776590808	7.085262776589962	0.8607481110180372	0.01845245013019192	1.512738322371635	-0.06932955427595483	-1.663615987781595e-07	-1.240040163727471e-07	5.076316988075666e-07	1.296655782131195e-07	-5.686031611661218e-07	-3.320798795438665e-07	-7.126951814764158e-08
